<?xml version="1.0" encoding="UTF-8" standalone="no"?>
<!-- Created with Inkscape (http://www.inkscape.org/) -->

<svg
   xmlns:dc="http://purl.org/dc/elements/1.1/"
   xmlns:cc="http://creativecommons.org/ns#"
   xmlns:rdf="http://www.w3.org/1999/02/22-rdf-syntax-ns#"
   xmlns:svg="http://www.w3.org/2000/svg"
   xmlns="http://www.w3.org/2000/svg"
   xmlns:sodipodi="http://sodipodi.sourceforge.net/DTD/sodipodi-0.dtd"
   xmlns:inkscape="http://www.inkscape.org/namespaces/inkscape"
   width="317.5mm"
   height="317.5mm"
   viewBox="0 0 317.5 317.5"
   version="1.1"
   id="svg1365"
   inkscape:version="0.92.4 (5da689c313, 2019-01-14)"
   sodipodi:docname="guitarapp_icon.svg">
  <defs
     id="defs1359" />
  <sodipodi:namedview
     id="base"
     pagecolor="#ffffff"
     bordercolor="#666666"
     borderopacity="1.0"
     inkscape:pageopacity="0.0"
     inkscape:pageshadow="2"
     inkscape:zoom="0.49497475"
     inkscape:cx="712.81676"
     inkscape:cy="-115.12504"
     inkscape:document-units="mm"
     inkscape:current-layer="layer1"
     showgrid="false"
     fit-margin-top="0"
     fit-margin-left="0"
     fit-margin-right="0"
     fit-margin-bottom="0"
     inkscape:window-width="2853"
     inkscape:window-height="1955"
     inkscape:window-x="-13"
     inkscape:window-y="-13"
     inkscape:window-maximized="1" />
  <metadata
     id="metadata1362">
    <rdf:RDF>
      <cc:Work
         rdf:about="">
        <dc:format>image/svg+xml</dc:format>
        <dc:type
           rdf:resource="http://purl.org/dc/dcmitype/StillImage" />
        <dc:title></dc:title>
      </cc:Work>
    </rdf:RDF>
  </metadata>
  <g
     inkscape:label="Ebene 1"
     inkscape:groupmode="layer"
     id="layer1"
     transform="translate(-20.968638,127.45829)">
    <g
       id="g1938"
       transform="matrix(11.192881,0,0,11.192888,-877.942,-1118.4444)"
       inkscape:export-xdpi="81.919998"
       inkscape:export-ydpi="81.919998">
      <path
         id="rect1086-5"
         d="M 94.494577,88.537125 A 14.183302,14.183302 0 0 0 80.310926,102.71972 14.183302,14.183302 0 0 0 94.494577,116.90335 14.183302,14.183302 0 0 0 108.67717,102.71972 14.183302,14.183302 0 0 0 94.494577,88.537125 Z"
         style="opacity:1;fill:#06c2ac;fill-opacity:1;stroke:none;stroke-width:6.77164793;stroke-linecap:round;stroke-linejoin:round;stroke-miterlimit:4;stroke-dasharray:none;stroke-opacity:1"
         inkscape:connector-curvature="0" />
      <path
         id="path815-7-0-6-3-07-7-1"
         d="m 94.494577,88.537125 a 14.183302,14.183302 0 0 0 -1.003565,0.03514 0.68084745,1.0877742 29.186091 0 0 -0.159146,0.827855 l 4.032832,25.00106 a 0.68084745,1.0877742 29.186091 0 0 0.235108,0.41651 l -0.0037,0.003 1.15652,0.68936 -0.230478,-0.98237 a 0.68084745,1.0877742 29.186091 0 0 0.411321,-1.20302 l -3.892263,-24.130785 0.790655,-0.583943 -0.0098,-0.0062 a 14.183302,14.183302 0 0 0 -1.327044,-0.06615 z m -10.415403,6.414596 a 0.68084745,1.0877742 29.186091 0 0 -0.467677,0.163816 0.68084745,1.0877742 29.186091 0 0 -0.634048,1.39268 l 2.803949,17.382403 a 14.183302,14.183302 0 0 0 1.951831,1.29501 L 84.687425,96.301511 85.47755,95.717049 84.32103,95.027685 a 0.68084745,1.0877742 29.186091 0 0 -0.241856,-0.07596 z"
         style="color:#000000;font-style:normal;font-variant:normal;font-weight:normal;font-stretch:normal;font-size:medium;line-height:normal;font-family:sans-serif;font-variant-ligatures:normal;font-variant-position:normal;font-variant-caps:normal;font-variant-numeric:normal;font-variant-alternates:normal;font-feature-settings:normal;text-indent:0;text-align:start;text-decoration:none;text-decoration-line:none;text-decoration-style:solid;text-decoration-color:#000000;letter-spacing:normal;word-spacing:normal;text-transform:none;writing-mode:lr-tb;direction:ltr;text-orientation:mixed;dominant-baseline:auto;baseline-shift:baseline;text-anchor:start;white-space:normal;shape-padding:0;clip-rule:nonzero;display:inline;overflow:visible;visibility:visible;opacity:1;isolation:auto;mix-blend-mode:normal;color-interpolation:sRGB;color-interpolation-filters:linearRGB;solid-color:#000000;solid-opacity:1;vector-effect:none;fill:#999999;fill-opacity:1;fill-rule:nonzero;stroke:none;stroke-width:1.72099996;stroke-linecap:round;stroke-linejoin:miter;stroke-miterlimit:4;stroke-dasharray:none;stroke-dashoffset:0;stroke-opacity:1;color-rendering:auto;image-rendering:auto;shape-rendering:auto;text-rendering:auto;enable-background:accumulate"
         inkscape:connector-curvature="0" />
      <path
         id="path4622-9-6-7"
         d="m 91.718516,99.822226 a 2.1679935,3.4637533 29.186091 0 0 -1.41957,0.498164 2.1679935,3.4637533 29.186091 0 0 -2.062903,4.42091 2.1679935,3.4637533 29.186091 0 0 0.844391,1.32447 l -0.01614,-5.3e-4 0.666644,0.39429 a 2.1679935,3.4637533 29.186091 0 0 -0.762238,3.03186 2.1679935,3.4637533 29.186091 0 0 0.844392,1.32498 l -0.0164,-5.3e-4 1.265555,0.74724 -0.276463,-0.60978 a 2.1679935,3.4637533 29.186091 0 0 1.118262,-0.4718 2.1679935,3.4637533 29.186091 0 0 2.062929,-4.42092 2.1679935,3.4637533 29.186091 0 0 -0.190156,-0.61547 l 0.575152,0.0181 -1.06815,-0.63097 a 2.1679935,3.4637533 29.186091 0 0 -0.02381,-0.0145 2.1679935,3.4637533 29.186091 0 0 -0.167931,-0.0987 l -0.0056,-0.004 v 0.002 a 2.1679935,3.4637533 29.186091 0 0 -0.636137,-0.14469 2.1679935,3.4637533 29.186091 0 0 -0.136922,0.008 2.1679935,3.4637533 29.186091 0 0 0.920353,-3.2706 2.1679935,3.4637533 29.186091 0 0 -0.189653,-0.61547 l 0.574648,0.0181 -1.137417,-0.67231 a 2.1679935,3.4637533 29.186091 0 0 -0.121947,-0.07183 l -0.0058,-0.0036 v 0.0016 a 2.1679935,3.4637533 29.186091 0 0 -0.636138,-0.144177 z m 11.591024,1.385444 a 2.1679935,3.4637533 29.186091 0 0 -1.41904,0.49816 2.1679935,3.4637533 29.186091 0 0 -2.062928,4.42092 2.1679935,3.4637533 29.186091 0 0 0.843888,1.32447 l -0.0161,-5.3e-4 1.26555,0.74775 -0.27646,-0.61029 a 2.1679935,3.4637533 29.186091 0 0 1.11829,-0.47181 2.1679935,3.4637533 29.186091 0 0 2.0629,-4.42092 2.1679935,3.4637533 29.186091 0 0 -0.18965,-0.61547 l 0.57465,0.0181 -1.13017,-0.66766 a 2.1679935,3.4637533 29.186091 0 0 -0.13073,-0.077 l -0.005,-0.003 v 10e-4 a 2.1679935,3.4637533 29.186091 0 0 -0.63614,-0.14365 z"
         style="opacity:1;fill:#60679e;fill-opacity:1;stroke:none;stroke-width:0.58399999;stroke-linecap:round;stroke-linejoin:round;stroke-miterlimit:4;stroke-dasharray:none;stroke-opacity:1"
         inkscape:connector-curvature="0" />
      <path
         id="path815-7-0-6-3-07-4-8"
         d="m 95.444907,88.584668 a 0.68084745,1.0877743 29.186092 0 0 -0.281649,0.137978 0.68084745,1.0877743 29.186092 0 0 -0.634073,1.392679 l 4.032832,25.001055 a 0.68084745,1.0877743 29.186092 1 0 1.569403,-1.07745 L 96.098613,89.037871 a 0.68084745,1.0877743 29.186092 0 0 -0.280087,-0.4346 14.183302,14.183302 0 0 0 -0.373619,-0.0186 z m -10.165794,7.080189 a 0.68084745,1.0877743 29.186092 0 0 -0.469742,0.165881 0.68084745,1.0877743 29.186092 0 0 -0.63201,1.391129 l 2.8262,17.521923 a 14.183302,14.183302 0 0 0 1.90582,1.01028 L 85.74679,96.144415 a 0.68084745,1.0877743 29.186092 0 0 -0.467677,-0.479558 z"
         style="color:#000000;font-style:normal;font-variant:normal;font-weight:normal;font-stretch:normal;font-size:medium;line-height:normal;font-family:sans-serif;font-variant-ligatures:normal;font-variant-position:normal;font-variant-caps:normal;font-variant-numeric:normal;font-variant-alternates:normal;font-feature-settings:normal;text-indent:0;text-align:start;text-decoration:none;text-decoration-line:none;text-decoration-style:solid;text-decoration-color:#000000;letter-spacing:normal;word-spacing:normal;text-transform:none;writing-mode:lr-tb;direction:ltr;text-orientation:mixed;dominant-baseline:auto;baseline-shift:baseline;text-anchor:start;white-space:normal;shape-padding:0;clip-rule:nonzero;display:inline;overflow:visible;visibility:visible;opacity:1;isolation:auto;mix-blend-mode:normal;color-interpolation:sRGB;color-interpolation-filters:linearRGB;solid-color:#000000;solid-opacity:1;vector-effect:none;fill:#808080;fill-opacity:1;fill-rule:nonzero;stroke:none;stroke-width:1.72099996;stroke-linecap:round;stroke-linejoin:miter;stroke-miterlimit:4;stroke-dasharray:none;stroke-dashoffset:0;stroke-opacity:1;color-rendering:auto;image-rendering:auto;shape-rendering:auto;text-rendering:auto;enable-background:accumulate"
         inkscape:connector-curvature="0" />
      <path
         id="path815-74-9-2"
         d="M 99.078272,89.313823 80.337807,102.17919 a 14.183302,14.183302 0 0 0 -0.02688,0.54053 14.183302,14.183302 0 0 0 0.0042,0.11576 L 99.687104,89.536033 a 14.183302,14.183302 0 0 0 -0.608753,-0.22221 z m 3.831798,2.01073 -22.088049,15.163417 a 14.183302,14.183302 0 0 0 0.170524,0.52348 L 103.35293,91.660965 a 14.183302,14.183302 0 0 0 -0.44286,-0.336412 z m 2.79673,2.723348 -23.330352,16.016599 a 14.183302,14.183302 0 0 0 0.276463,0.4501 L 106.01377,94.477333 a 14.183302,14.183302 0 0 0 -0.30697,-0.429432 z m 1.9141,3.326929 -22.825472,15.66984 a 14.183302,14.183302 0 0 0 0.395843,0.36897 L 107.81365,97.882809 A 14.183302,14.183302 0 0 0 107.6209,97.37483 Z m 0.97565,3.9734 -20.448375,14.0379 a 14.183302,14.183302 0 0 0 0.547264,0.26459 l 19.954351,-13.69891 a 14.183302,14.183302 0 0 0 -0.0532,-0.60358 z m -0.38499,4.90564 -15.359781,10.54458 a 14.183302,14.183302 0 0 0 0.838174,0.0646 l 14.306127,-9.82111 a 14.183302,14.183302 0 0 0 0.21548,-0.78807 z"
         style="color:#000000;font-style:normal;font-variant:normal;font-weight:normal;font-stretch:normal;font-size:medium;line-height:normal;font-family:sans-serif;font-variant-ligatures:normal;font-variant-position:normal;font-variant-caps:normal;font-variant-numeric:normal;font-variant-alternates:normal;font-feature-settings:normal;text-indent:0;text-align:start;text-decoration:none;text-decoration-line:none;text-decoration-style:solid;text-decoration-color:#000000;letter-spacing:normal;word-spacing:normal;text-transform:none;writing-mode:lr-tb;direction:ltr;text-orientation:mixed;dominant-baseline:auto;baseline-shift:baseline;text-anchor:start;white-space:normal;shape-padding:0;clip-rule:nonzero;display:inline;overflow:visible;visibility:visible;opacity:1;isolation:auto;mix-blend-mode:normal;color-interpolation:sRGB;color-interpolation-filters:linearRGB;solid-color:#000000;solid-opacity:1;vector-effect:none;fill:#ececec;fill-opacity:1;fill-rule:nonzero;stroke:none;stroke-width:0.58399999;stroke-linecap:butt;stroke-linejoin:miter;stroke-miterlimit:4;stroke-dasharray:none;stroke-dashoffset:0;stroke-opacity:1;color-rendering:auto;image-rendering:auto;shape-rendering:auto;text-rendering:auto;enable-background:accumulate"
         inkscape:connector-curvature="0" />
      <path
         id="path4622-4-2-7-8"
         d="m 95.164782,106.77523 a 2.1679935,3.4637533 29.186092 0 0 -2.93539,-0.98976 2.1679935,3.4637533 29.186092 0 0 -2.06264,4.42096 2.1679935,3.4637533 29.186092 0 0 2.9354,0.98976 2.1679935,3.4637533 29.186092 0 0 2.06263,-4.42096 z"
         style="opacity:1;fill:#000000;fill-opacity:0.99854862;stroke:none;stroke-width:0.58399999;stroke-linecap:round;stroke-linejoin:round;stroke-miterlimit:4;stroke-dasharray:none;stroke-opacity:1"
         inkscape:connector-curvature="0" />
      <path
         id="path4622-4-4-0-0-5"
         d="m 94.432362,102.02478 a 2.1679935,3.4637533 29.186092 0 0 -2.93539,-0.98976 2.1679935,3.4637533 29.186092 0 0 -2.06263,4.42096 2.1679935,3.4637533 29.186092 0 0 2.93539,0.98975 2.1679935,3.4637533 29.186092 0 0 2.06263,-4.42095 z"
         style="opacity:1;fill:#000000;fill-opacity:0.99854862;stroke:none;stroke-width:0.58399999;stroke-linecap:round;stroke-linejoin:round;stroke-miterlimit:4;stroke-dasharray:none;stroke-opacity:1"
         inkscape:connector-curvature="0" />
      <path
         id="path4622-9-8-2"
         d="m 92.916364,100.53691 a 2.1679935,3.4637533 29.186092 0 0 -1.419543,0.49816 2.1679935,3.4637533 29.186092 0 0 -2.062401,4.42092 2.1679935,3.4637533 29.186092 0 0 1.653117,1.47949 2.1679935,3.4637533 29.186092 0 0 -0.920882,3.27113 2.1679935,3.4637533 29.186092 0 0 2.935737,0.9896 2.1679935,3.4637533 29.186092 0 0 2.062428,-4.42092 2.1679935,3.4637533 29.186092 0 0 -1.653144,-1.4795 2.1679935,3.4637533 29.186092 0 0 0.920883,-3.27111 2.1679935,3.4637533 29.186092 0 0 -1.516195,-1.48777 z m 11.591556,1.38545 a 2.1679935,3.4637533 29.186092 0 0 -1.41957,0.49816 2.1679935,3.4637533 29.186092 0 0 -2.0624,4.42091 2.1679935,3.4637533 29.186092 0 0 2.93523,0.98961 2.1679935,3.4637533 29.186092 0 0 2.0624,-4.42092 2.1679935,3.4637533 29.186092 0 0 -1.51566,-1.48776 z"
         style="opacity:1;fill:#4e5481;fill-opacity:1;stroke:none;stroke-width:0.58399999;stroke-linecap:round;stroke-linejoin:round;stroke-miterlimit:4;stroke-dasharray:none;stroke-opacity:1"
         inkscape:connector-curvature="0" />
    </g>
  </g>
</svg>
